<?xml version="1.0" encoding="UTF-8" standalone="no"?>
<!DOCTYPE svg PUBLIC "-//W3C//DTD SVG 1.1//EN"
 "http://www.w3.org/Graphics/SVG/1.1/DTD/svg11.dtd">
<!-- Generated by graphviz version 2.43.0 (0)
 -->
<!-- Title: G Pages: 1 -->
<svg width="1232pt" height="942pt"
 viewBox="0.00 0.00 1232.21 942.40" xmlns="http://www.w3.org/2000/svg" xmlns:xlink="http://www.w3.org/1999/xlink">
<g id="graph0" class="graph" transform="scale(1 1) rotate(0) translate(4 938.4)">
<title>G</title><style>.edge>path:hover{stroke-width:8}</style>
<polygon fill="white" stroke="transparent" points="-4,4 -4,-938.4 1228.21,-938.4 1228.21,4 -4,4"/>
<!-- experimental_lowqa_edit -->
<g id="node1" class="node">
<title>experimental_lowqa_edit</title><style>.edge>path:hover{stroke-width:8}</style>
<ellipse fill="#9b2626" stroke="black" cx="118.53" cy="-342.05" rx="84.29" ry="21.43"/>
<text text-anchor="middle" x="118.53" y="-345.05" font-family="Helvetica,sans-Serif" font-size="10.00" fill="#ffffff">experimental_lowqa.</text>
<text text-anchor="middle" x="118.53" y="-334.05" font-family="Helvetica,sans-Serif" font-size="10.00" fill="#ffffff">edit</text>
</g>
<!-- experimental_lowqa_tasks_python -->
<g id="node6" class="node">
<title>experimental_lowqa_tasks_python</title><style>.edge>path:hover{stroke-width:8}</style>
<ellipse fill="#a83838" stroke="black" cx="213.53" cy="-130.75" rx="84.29" ry="28.98"/>
<text text-anchor="middle" x="213.53" y="-139.25" font-family="Helvetica,sans-Serif" font-size="10.00" fill="#ffffff">experimental_lowqa.</text>
<text text-anchor="middle" x="213.53" y="-128.25" font-family="Helvetica,sans-Serif" font-size="10.00" fill="#ffffff">tasks.</text>
<text text-anchor="middle" x="213.53" y="-117.25" font-family="Helvetica,sans-Serif" font-size="10.00" fill="#ffffff">python</text>
</g>
<!-- experimental_lowqa_edit&#45;&gt;experimental_lowqa_tasks_python -->
<g id="edge1" class="edge">
<title>experimental_lowqa_edit&#45;&gt;experimental_lowqa_tasks_python</title><style>.edge>path:hover{stroke-width:8}</style>
<path fill="none" stroke="black" d="M86.02,-322.3C70.36,-311.32 53.15,-295.91 44.53,-277.06 30.94,-247.34 26.5,-230.78 44.53,-203.52 63.59,-174.73 96.76,-157.46 128.7,-147.11"/>
<polygon fill="#9b2626" stroke="black" points="130.01,-150.37 138.56,-144.11 127.97,-143.67 130.01,-150.37"/>
</g>
<!-- experimental_lowqa_userfs -->
<g id="node11" class="node">
<title>experimental_lowqa_userfs</title><style>.edge>path:hover{stroke-width:8}</style>
<ellipse fill="#ac4949" stroke="black" cx="137.53" cy="-240.29" rx="84.29" ry="21.43"/>
<text text-anchor="middle" x="137.53" y="-243.29" font-family="Helvetica,sans-Serif" font-size="10.00" fill="#ffffff">experimental_lowqa.</text>
<text text-anchor="middle" x="137.53" y="-232.29" font-family="Helvetica,sans-Serif" font-size="10.00" fill="#ffffff">userfs</text>
</g>
<!-- experimental_lowqa_edit&#45;&gt;experimental_lowqa_userfs -->
<g id="edge2" class="edge">
<title>experimental_lowqa_edit&#45;&gt;experimental_lowqa_userfs</title><style>.edge>path:hover{stroke-width:8}</style>
<path fill="none" stroke="black" d="M122.47,-320.38C125.16,-306.24 128.78,-287.27 131.79,-271.45"/>
<polygon fill="#9b2626" stroke="black" points="135.23,-272.07 133.67,-261.59 128.36,-270.76 135.23,-272.07"/>
</g>
<!-- experimental_lowqa_env -->
<g id="node2" class="node">
<title>experimental_lowqa_env</title><style>.edge>path:hover{stroke-width:8}</style>
<ellipse fill="#c24747" stroke="black" cx="99.53" cy="-428.26" rx="84.29" ry="21.43"/>
<text text-anchor="middle" x="99.53" y="-431.26" font-family="Helvetica,sans-Serif" font-size="10.00" fill="#ffffff">experimental_lowqa.</text>
<text text-anchor="middle" x="99.53" y="-420.26" font-family="Helvetica,sans-Serif" font-size="10.00" fill="#ffffff">env</text>
</g>
<!-- experimental_lowqa_env&#45;&gt;experimental_lowqa_edit -->
<g id="edge3" class="edge">
<title>experimental_lowqa_env&#45;&gt;experimental_lowqa_edit</title><style>.edge>path:hover{stroke-width:8}</style>
<path fill="none" stroke="black" d="M104.13,-406.87C106.42,-396.74 109.23,-384.29 111.76,-373.08"/>
<polygon fill="#c24747" stroke="black" points="115.19,-373.77 113.98,-363.25 108.36,-372.23 115.19,-373.77"/>
</g>
<!-- experimental_lowqa_prompts -->
<g id="node3" class="node">
<title>experimental_lowqa_prompts</title><style>.edge>path:hover{stroke-width:8}</style>
<ellipse fill="#c24747" stroke="black" cx="955.53" cy="-506.68" rx="84.29" ry="21.43"/>
<text text-anchor="middle" x="955.53" y="-509.68" font-family="Helvetica,sans-Serif" font-size="10.00" fill="#ffffff">experimental_lowqa.</text>
<text text-anchor="middle" x="955.53" y="-498.68" font-family="Helvetica,sans-Serif" font-size="10.00" fill="#ffffff">prompts</text>
</g>
<!-- experimental_lowqa_tasks_conntextual -->
<g id="node4" class="node">
<title>experimental_lowqa_tasks_conntextual</title><style>.edge>path:hover{stroke-width:8}</style>
<ellipse fill="#6b2e2e" stroke="black" cx="927.53" cy="-342.05" rx="84.29" ry="28.98"/>
<text text-anchor="middle" x="927.53" y="-350.55" font-family="Helvetica,sans-Serif" font-size="10.00" fill="#ffffff">experimental_lowqa.</text>
<text text-anchor="middle" x="927.53" y="-339.55" font-family="Helvetica,sans-Serif" font-size="10.00" fill="#ffffff">tasks.</text>
<text text-anchor="middle" x="927.53" y="-328.55" font-family="Helvetica,sans-Serif" font-size="10.00" fill="#ffffff">conntextual</text>
</g>
<!-- experimental_lowqa_prompts&#45;&gt;experimental_lowqa_tasks_conntextual -->
<g id="edge4" class="edge">
<title>experimental_lowqa_prompts&#45;&gt;experimental_lowqa_tasks_conntextual</title><style>.edge>path:hover{stroke-width:8}</style>
<path fill="none" stroke="black" d="M901.24,-490.46C873.17,-478.93 844.52,-459.73 843.53,-429.26"/>
</g>
<!-- experimental_lowqa_tasks_docs -->
<g id="node5" class="node">
<title>experimental_lowqa_tasks_docs</title><style>.edge>path:hover{stroke-width:8}</style>
<ellipse fill="#813737" stroke="black" cx="213.53" cy="-28.99" rx="84.29" ry="28.98"/>
<text text-anchor="middle" x="213.53" y="-37.49" font-family="Helvetica,sans-Serif" font-size="10.00" fill="#ffffff">experimental_lowqa.</text>
<text text-anchor="middle" x="213.53" y="-26.49" font-family="Helvetica,sans-Serif" font-size="10.00" fill="#ffffff">tasks.</text>
<text text-anchor="middle" x="213.53" y="-15.49" font-family="Helvetica,sans-Serif" font-size="10.00" fill="#ffffff">docs</text>
</g>
<!-- experimental_lowqa_tasks_python&#45;&gt;experimental_lowqa_tasks_docs -->
<g id="edge5" class="edge">
<title>experimental_lowqa_tasks_python&#45;&gt;experimental_lowqa_tasks_docs</title><style>.edge>path:hover{stroke-width:8}</style>
<path fill="none" stroke="black" d="M213.53,-101.7C213.53,-91.39 213.53,-79.54 213.53,-68.47"/>
<polygon fill="#a83838" stroke="black" points="217.03,-68.18 213.53,-58.18 210.03,-68.18 217.03,-68.18"/>
</g>
<!-- experimental_lowqa_tasks_runtimepy -->
<g id="node7" class="node">
<title>experimental_lowqa_tasks_runtimepy</title><style>.edge>path:hover{stroke-width:8}</style>
<ellipse fill="#9d4343" stroke="black" cx="589.53" cy="-342.05" rx="84.29" ry="28.98"/>
<text text-anchor="middle" x="589.53" y="-350.55" font-family="Helvetica,sans-Serif" font-size="10.00" fill="#ffffff">experimental_lowqa.</text>
<text text-anchor="middle" x="589.53" y="-339.55" font-family="Helvetica,sans-Serif" font-size="10.00" fill="#ffffff">tasks.</text>
<text text-anchor="middle" x="589.53" y="-328.55" font-family="Helvetica,sans-Serif" font-size="10.00" fill="#ffffff">runtimepy</text>
</g>
<!-- experimental_lowqa_tasks_yambs_common -->
<g id="node8" class="node">
<title>experimental_lowqa_tasks_yambs_common</title><style>.edge>path:hover{stroke-width:8}</style>
<ellipse fill="#c24747" stroke="black" cx="926.53" cy="-240.29" rx="84.29" ry="36.54"/>
<text text-anchor="middle" x="926.53" y="-254.29" font-family="Helvetica,sans-Serif" font-size="10.00" fill="#ffffff">experimental_lowqa.</text>
<text text-anchor="middle" x="926.53" y="-243.29" font-family="Helvetica,sans-Serif" font-size="10.00" fill="#ffffff">tasks.</text>
<text text-anchor="middle" x="926.53" y="-232.29" font-family="Helvetica,sans-Serif" font-size="10.00" fill="#ffffff">yambs.</text>
<text text-anchor="middle" x="926.53" y="-221.29" font-family="Helvetica,sans-Serif" font-size="10.00" fill="#ffffff">common</text>
</g>
<!-- experimental_lowqa_tasks_yambs_jlink -->
<g id="node9" class="node">
<title>experimental_lowqa_tasks_yambs_jlink</title><style>.edge>path:hover{stroke-width:8}</style>
<ellipse fill="#732626" stroke="black" cx="870.53" cy="-130.75" rx="84.29" ry="36.54"/>
<text text-anchor="middle" x="870.53" y="-144.75" font-family="Helvetica,sans-Serif" font-size="10.00" fill="#ffffff">experimental_lowqa.</text>
<text text-anchor="middle" x="870.53" y="-133.75" font-family="Helvetica,sans-Serif" font-size="10.00" fill="#ffffff">tasks.</text>
<text text-anchor="middle" x="870.53" y="-122.75" font-family="Helvetica,sans-Serif" font-size="10.00" fill="#ffffff">yambs.</text>
<text text-anchor="middle" x="870.53" y="-111.75" font-family="Helvetica,sans-Serif" font-size="10.00" fill="#ffffff">jlink</text>
</g>
<!-- experimental_lowqa_tasks_yambs_common&#45;&gt;experimental_lowqa_tasks_yambs_jlink -->
<g id="edge6" class="edge">
<title>experimental_lowqa_tasks_yambs_common&#45;&gt;experimental_lowqa_tasks_yambs_jlink</title><style>.edge>path:hover{stroke-width:8}</style>
<path fill="none" stroke="black" d="M908.35,-204.38C903.61,-195.27 898.43,-185.33 893.48,-175.81"/>
<polygon fill="#c24747" stroke="black" points="896.54,-174.11 888.82,-166.86 890.33,-177.35 896.54,-174.11"/>
</g>
<!-- experimental_lowqa_tasks_yambs_udev -->
<g id="node10" class="node">
<title>experimental_lowqa_tasks_yambs_udev</title><style>.edge>path:hover{stroke-width:8}</style>
<ellipse fill="#a83838" stroke="black" cx="702.53" cy="-240.29" rx="84.29" ry="36.54"/>
<text text-anchor="middle" x="702.53" y="-254.29" font-family="Helvetica,sans-Serif" font-size="10.00" fill="#ffffff">experimental_lowqa.</text>
<text text-anchor="middle" x="702.53" y="-243.29" font-family="Helvetica,sans-Serif" font-size="10.00" fill="#ffffff">tasks.</text>
<text text-anchor="middle" x="702.53" y="-232.29" font-family="Helvetica,sans-Serif" font-size="10.00" fill="#ffffff">yambs.</text>
<text text-anchor="middle" x="702.53" y="-221.29" font-family="Helvetica,sans-Serif" font-size="10.00" fill="#ffffff">udev</text>
</g>
<!-- experimental_lowqa_tasks_yambs_udev&#45;&gt;experimental_lowqa_tasks_yambs_jlink -->
<g id="edge7" class="edge">
<title>experimental_lowqa_tasks_yambs_udev&#45;&gt;experimental_lowqa_tasks_yambs_jlink</title><style>.edge>path:hover{stroke-width:8}</style>
<path fill="none" stroke="black" d="M749.33,-209.34C769.81,-196.23 793.99,-180.75 815.34,-167.08"/>
<polygon fill="#a83838" stroke="black" points="817.45,-169.89 823.99,-161.55 813.68,-163.99 817.45,-169.89"/>
</g>
<!-- vcorelib -->
<g id="node12" class="node">
<title>vcorelib</title><style>.edge>path:hover{stroke-width:8}</style>
<ellipse fill="#10f9f9" stroke="black" cx="272.53" cy="-592.89" rx="32.93" ry="18"/>
<text text-anchor="middle" x="272.53" y="-590.39" font-family="Helvetica,sans-Serif" font-size="10.00" fill="#000000">vcorelib</text>
</g>
<!-- vcorelib&#45;&gt;experimental_lowqa_edit -->
<g id="edge8" class="edge">
<title>vcorelib&#45;&gt;experimental_lowqa_edit</title><style>.edge>path:hover{stroke-width:8}</style>
<path fill="none" stroke="black" d="M255.3,-577.25C239.03,-561.93 216.42,-536.15 211.53,-507.68"/>
</g>
<!-- vcorelib&#45;&gt;experimental_lowqa_tasks_conntextual -->
<g id="edge9" class="edge">
<title>vcorelib&#45;&gt;experimental_lowqa_tasks_conntextual</title><style>.edge>path:hover{stroke-width:8}</style>
<path fill="none" stroke="black" d="M302.92,-585.55C385.11,-568.26 606.29,-520.69 615.53,-507.68"/>
<path fill="none" stroke="black" d="M615.53,-505.68C671.21,-427.34 776.31,-383.86 849.05,-361.99"/>
<polygon fill="#10f9f9" stroke="black" points="850.48,-365.22 859.09,-359.04 848.51,-358.5 850.48,-365.22"/>
</g>
<!-- vcorelib&#45;&gt;experimental_lowqa_tasks_docs -->
<g id="edge10" class="edge">
<title>vcorelib&#45;&gt;experimental_lowqa_tasks_docs</title><style>.edge>path:hover{stroke-width:8}</style>
<path fill="none" stroke="black" d="M325.53,-239.29C314.35,-192.82 348.55,-173.64 325.53,-131.75"/>
<path fill="none" stroke="black" d="M325.53,-129.75C316.86,-113.98 318.51,-107.42 306.53,-93.98 294.87,-80.9 280,-69.15 265.59,-59.39"/>
<polygon fill="#10f9f9" stroke="black" points="267.47,-56.44 257.19,-53.88 263.64,-62.29 267.47,-56.44"/>
</g>
<!-- vcorelib&#45;&gt;experimental_lowqa_tasks_python -->
<g id="edge11" class="edge">
<title>vcorelib&#45;&gt;experimental_lowqa_tasks_python</title><style>.edge>path:hover{stroke-width:8}</style>
<path fill="none" stroke="black" d="M281.6,-575.43C291.5,-557.98 308.26,-529.92 325.53,-507.68"/>
<path fill="none" stroke="black" d="M325.53,-505.68C369.88,-448.6 307.28,-412.99 325.53,-343.05"/>
<path fill="none" stroke="black" d="M325.53,-341.05C334.49,-297.63 335.91,-284.4 325.53,-241.29"/>
<path fill="none" stroke="black" d="M325.53,-239.29C317.65,-206.56 290.81,-180.17 265.38,-161.73"/>
<polygon fill="#10f9f9" stroke="black" points="267.04,-158.62 256.84,-155.78 263.04,-164.37 267.04,-158.62"/>
</g>
<!-- vcorelib&#45;&gt;experimental_lowqa_tasks_runtimepy -->
<g id="edge12" class="edge">
<title>vcorelib&#45;&gt;experimental_lowqa_tasks_runtimepy</title><style>.edge>path:hover{stroke-width:8}</style>
<path fill="none" stroke="black" d="M477.53,-427.26C498.47,-408.31 523.45,-389.23 544.5,-374.03"/>
<polygon fill="#10f9f9" stroke="black" points="546.57,-376.86 552.66,-368.2 542.49,-371.17 546.57,-376.86"/>
</g>
<!-- vcorelib&#45;&gt;experimental_lowqa_tasks_yambs_jlink -->
<g id="edge13" class="edge">
<title>vcorelib&#45;&gt;experimental_lowqa_tasks_yambs_jlink</title><style>.edge>path:hover{stroke-width:8}</style>
<path fill="none" stroke="black" d="M325.53,-341.05C339.13,-275.11 384.82,-280.53 439.53,-241.29"/>
<path fill="none" stroke="black" d="M439.53,-239.29C539.91,-167.31 683.39,-143.3 776.75,-135.42"/>
<polygon fill="#10f9f9" stroke="black" points="777.06,-138.9 786.75,-134.62 776.51,-131.93 777.06,-138.9"/>
</g>
<!-- vcorelib&#45;&gt;experimental_lowqa_tasks_yambs_udev -->
<g id="edge14" class="edge">
<title>vcorelib&#45;&gt;experimental_lowqa_tasks_yambs_udev</title><style>.edge>path:hover{stroke-width:8}</style>
<path fill="none" stroke="black" d="M325.53,-505.68C371.92,-445.97 421.47,-479.99 477.53,-429.26"/>
<path fill="none" stroke="black" d="M477.53,-427.26C505.28,-402.15 460.77,-376.51 477.53,-343.05"/>
<path fill="none" stroke="black" d="M477.53,-341.05C484.27,-327.61 484.61,-322.22 496.53,-313.06 531.29,-286.38 576.7,-269.15 616.04,-258.29"/>
<polygon fill="#10f9f9" stroke="black" points="617.14,-261.62 625.91,-255.66 615.34,-254.85 617.14,-261.62"/>
</g>
<!-- vcorelib_io -->
<g id="node13" class="node">
<title>vcorelib_io</title><style>.edge>path:hover{stroke-width:8}</style>
<ellipse fill="#23c8c8" stroke="black" cx="759.53" cy="-592.89" rx="40.06" ry="18"/>
<text text-anchor="middle" x="759.53" y="-590.39" font-family="Helvetica,sans-Serif" font-size="10.00" fill="#000000">vcorelib.io</text>
</g>
<!-- vcorelib_io&#45;&gt;experimental_lowqa_tasks_conntextual -->
<g id="edge15" class="edge">
<title>vcorelib_io&#45;&gt;experimental_lowqa_tasks_conntextual</title><style>.edge>path:hover{stroke-width:8}</style>
<path fill="none" stroke="black" d="M805.53,-505.68C819.04,-470.23 844.76,-467.17 843.53,-429.26"/>
</g>
<!-- vcorelib_io&#45;&gt;experimental_lowqa_tasks_yambs_jlink -->
<g id="edge16" class="edge">
<title>vcorelib_io&#45;&gt;experimental_lowqa_tasks_yambs_jlink</title><style>.edge>path:hover{stroke-width:8}</style>
<path fill="none" stroke="black" d="M770.28,-575.44C780.64,-558.92 796.11,-532.43 805.53,-507.68"/>
<path fill="none" stroke="black" d="M805.53,-505.68C847.39,-395.81 767.6,-349.09 814.53,-241.29"/>
</g>
<!-- vcorelib_io_archive -->
<g id="node14" class="node">
<title>vcorelib_io_archive</title><style>.edge>path:hover{stroke-width:8}</style>
<ellipse fill="#439d9d" stroke="black" cx="998.53" cy="-592.89" rx="41.94" ry="28.98"/>
<text text-anchor="middle" x="998.53" y="-601.39" font-family="Helvetica,sans-Serif" font-size="10.00" fill="#000000">vcorelib.</text>
<text text-anchor="middle" x="998.53" y="-590.39" font-family="Helvetica,sans-Serif" font-size="10.00" fill="#000000">io.</text>
<text text-anchor="middle" x="998.53" y="-579.39" font-family="Helvetica,sans-Serif" font-size="10.00" fill="#000000">archive</text>
</g>
<!-- vcorelib_io_archive&#45;&gt;experimental_lowqa_tasks_yambs_jlink -->
<g id="edge17" class="edge">
<title>vcorelib_io_archive&#45;&gt;experimental_lowqa_tasks_yambs_jlink</title><style>.edge>path:hover{stroke-width:8}</style>
<path fill="none" stroke="black" d="M1037.61,-582.69C1065.8,-573.79 1101.88,-557.21 1119.53,-527.9 1129.26,-511.74 1122.19,-504.14 1119.53,-485.47 1103.6,-373.58 1065.77,-352.99 1048.53,-241.29"/>
</g>
<!-- vcorelib_io_types -->
<g id="node15" class="node">
<title>vcorelib_io_types</title><style>.edge>path:hover{stroke-width:8}</style>
<ellipse fill="#31c4c4" stroke="black" cx="827.53" cy="-694.65" rx="41.94" ry="28.98"/>
<text text-anchor="middle" x="827.53" y="-703.15" font-family="Helvetica,sans-Serif" font-size="10.00" fill="#000000">vcorelib.</text>
<text text-anchor="middle" x="827.53" y="-692.15" font-family="Helvetica,sans-Serif" font-size="10.00" fill="#000000">io.</text>
<text text-anchor="middle" x="827.53" y="-681.15" font-family="Helvetica,sans-Serif" font-size="10.00" fill="#000000">types</text>
</g>
<!-- vcorelib_io_types&#45;&gt;experimental_lowqa_tasks_conntextual -->
<g id="edge18" class="edge">
<title>vcorelib_io_types&#45;&gt;experimental_lowqa_tasks_conntextual</title><style>.edge>path:hover{stroke-width:8}</style>
<path fill="none" stroke="black" d="M822.31,-665.58C819.71,-645.04 818.75,-616.86 827.53,-593.89"/>
</g>
<!-- vcorelib_io_types&#45;&gt;vcorelib_io -->
<g id="edge19" class="edge">
<title>vcorelib_io_types&#45;&gt;vcorelib_io</title><style>.edge>path:hover{stroke-width:8}</style>
<path fill="none" stroke="black" d="M810.2,-668.22C799.8,-652.97 786.65,-633.67 776.35,-618.56"/>
<polygon fill="#31c4c4" stroke="black" points="779.18,-616.5 770.66,-610.21 773.4,-620.44 779.18,-616.5"/>
</g>
<!-- vcorelib_io_types&#45;&gt;vcorelib_io_archive -->
<g id="edge20" class="edge">
<title>vcorelib_io_types&#45;&gt;vcorelib_io_archive</title><style>.edge>path:hover{stroke-width:8}</style>
<path fill="none" stroke="black" d="M858.9,-675.35C886.89,-659.02 928.04,-635.01 958.42,-617.29"/>
<polygon fill="#31c4c4" stroke="black" points="960.21,-620.3 967.08,-612.24 956.68,-614.25 960.21,-620.3"/>
</g>
<!-- vcorelib_paths -->
<g id="node16" class="node">
<title>vcorelib_paths</title><style>.edge>path:hover{stroke-width:8}</style>
<ellipse fill="#06efef" stroke="black" cx="1143.53" cy="-916.4" rx="50.75" ry="18"/>
<text text-anchor="middle" x="1143.53" y="-913.9" font-family="Helvetica,sans-Serif" font-size="10.00" fill="#000000">vcorelib.paths</text>
</g>
<!-- vcorelib_paths&#45;&gt;experimental_lowqa_edit -->
<g id="edge21" class="edge">
<title>vcorelib_paths&#45;&gt;experimental_lowqa_edit</title><style>.edge>path:hover{stroke-width:8}</style>
<path fill="none" stroke="black" d="M1124.9,-899.62C1113.51,-889.53 1098.98,-875.86 1087.53,-862.4 1077.79,-850.95 1081.03,-842.78 1068.53,-834.41"/>
<path fill="none" stroke="black" d="M1068.53,-832.41C931.7,-740.75 860.59,-818.01 703.53,-768.42"/>
<path fill="none" stroke="black" d="M703.53,-767.42C480.39,-696.95 402.08,-735.54 197.53,-621.88 97.57,-566.33 52.98,-553.97 6.53,-449.47 -1.12,-432.24 -2.93,-423.35 6.53,-407.04 17.99,-387.31 38.07,-373.15 58.09,-363.25"/>
<polygon fill="#06efef" stroke="black" points="59.66,-366.38 67.26,-358.99 56.71,-360.03 59.66,-366.38"/>
</g>
<!-- vcorelib_paths&#45;&gt;experimental_lowqa_tasks_conntextual -->
<g id="edge22" class="edge">
<title>vcorelib_paths&#45;&gt;experimental_lowqa_tasks_conntextual</title><style>.edge>path:hover{stroke-width:8}</style>
<path fill="none" stroke="black" d="M1068.53,-693.65C1053.21,-601.97 1108.38,-556.59 1048.53,-485.47 987.71,-413.18 847.6,-523.64 843.53,-429.26"/>
</g>
<!-- vcorelib_paths&#45;&gt;experimental_lowqa_tasks_docs -->
<g id="edge23" class="edge">
<title>vcorelib_paths&#45;&gt;experimental_lowqa_tasks_docs</title><style>.edge>path:hover{stroke-width:8}</style>
<path fill="none" stroke="black" d="M1160.8,-899.1C1170.4,-889.25 1181.9,-876 1189.53,-862.4 1211.01,-824.17 1219.53,-812.26 1219.53,-768.42 1219.53,-768.42 1219.53,-768.42 1219.53,-341.05 1219.53,-245.62 1244.11,-193.73 1171.53,-131.75"/>
</g>
<!-- vcorelib_paths&#45;&gt;vcorelib_io_archive -->
<g id="edge24" class="edge">
<title>vcorelib_paths&#45;&gt;vcorelib_io_archive</title><style>.edge>path:hover{stroke-width:8}</style>
<path fill="none" stroke="black" d="M1068.53,-767.42C1052.9,-739.61 1073.79,-727.11 1068.53,-695.65"/>
<path fill="none" stroke="black" d="M1068.53,-693.65C1064.08,-666.99 1046.64,-642.09 1030.28,-623.84"/>
<polygon fill="#06efef" stroke="black" points="1032.76,-621.37 1023.38,-616.44 1027.64,-626.14 1032.76,-621.37"/>
</g>
<!-- vcorelib_paths&#45;&gt;vcorelib_io_types -->
<g id="edge25" class="edge">
<title>vcorelib_paths&#45;&gt;vcorelib_io_types</title><style>.edge>path:hover{stroke-width:8}</style>
<path fill="none" stroke="black" d="M1068.53,-832.41C1044.91,-816.58 1082.47,-793.21 1068.53,-768.42"/>
<path fill="none" stroke="black" d="M1068.53,-767.42C1049.75,-734.01 943.33,-712.66 878.35,-702.55"/>
<polygon fill="#06efef" stroke="black" points="878.71,-699.07 868.3,-701.03 877.66,-705.99 878.71,-699.07"/>
</g>
<!-- vcorelib_task_subprocess_run -->
<g id="node21" class="node">
<title>vcorelib_task_subprocess_run</title><style>.edge>path:hover{stroke-width:8}</style>
<ellipse fill="#0bd6d6" stroke="black" cx="703.53" cy="-694.65" rx="52.15" ry="36.54"/>
<text text-anchor="middle" x="703.53" y="-708.65" font-family="Helvetica,sans-Serif" font-size="10.00" fill="#000000">vcorelib.</text>
<text text-anchor="middle" x="703.53" y="-697.65" font-family="Helvetica,sans-Serif" font-size="10.00" fill="#000000">task.</text>
<text text-anchor="middle" x="703.53" y="-686.65" font-family="Helvetica,sans-Serif" font-size="10.00" fill="#000000">subprocess.</text>
<text text-anchor="middle" x="703.53" y="-675.65" font-family="Helvetica,sans-Serif" font-size="10.00" fill="#000000">run</text>
</g>
<!-- vcorelib_paths&#45;&gt;vcorelib_task_subprocess_run -->
<g id="edge26" class="edge">
<title>vcorelib_paths&#45;&gt;vcorelib_task_subprocess_run</title><style>.edge>path:hover{stroke-width:8}</style>
<path fill="none" stroke="black" d="M703.53,-767.42C692.19,-763.84 689.31,-752.94 690.15,-740.69"/>
<polygon fill="#06efef" stroke="black" points="693.63,-741.07 691.54,-730.69 686.7,-740.11 693.63,-741.07"/>
</g>
<!-- vcorelib_paths_context -->
<g id="node17" class="node">
<title>vcorelib_paths_context</title><style>.edge>path:hover{stroke-width:8}</style>
<ellipse fill="#49acac" stroke="black" cx="897.53" cy="-592.89" rx="41.94" ry="28.98"/>
<text text-anchor="middle" x="897.53" y="-601.39" font-family="Helvetica,sans-Serif" font-size="10.00" fill="#000000">vcorelib.</text>
<text text-anchor="middle" x="897.53" y="-590.39" font-family="Helvetica,sans-Serif" font-size="10.00" fill="#000000">paths.</text>
<text text-anchor="middle" x="897.53" y="-579.39" font-family="Helvetica,sans-Serif" font-size="10.00" fill="#000000">context</text>
</g>
<!-- vcorelib_paths_context&#45;&gt;experimental_lowqa_tasks_conntextual -->
<g id="edge27" class="edge">
<title>vcorelib_paths_context&#45;&gt;experimental_lowqa_tasks_conntextual</title><style>.edge>path:hover{stroke-width:8}</style>
<path fill="none" stroke="black" d="M874.15,-568.51C860.73,-552.8 846.05,-530.82 843.53,-507.68"/>
</g>
<!-- vcorelib_task -->
<g id="node18" class="node">
<title>vcorelib_task</title><style>.edge>path:hover{stroke-width:8}</style>
<ellipse fill="#06f9f9" stroke="black" cx="616.53" cy="-592.89" rx="47.19" ry="18"/>
<text text-anchor="middle" x="616.53" y="-590.39" font-family="Helvetica,sans-Serif" font-size="10.00" fill="#000000">vcorelib.task</text>
</g>
<!-- vcorelib_task&#45;&gt;experimental_lowqa_edit -->
<g id="edge28" class="edge">
<title>vcorelib_task&#45;&gt;experimental_lowqa_edit</title><style>.edge>path:hover{stroke-width:8}</style>
<path fill="none" stroke="black" d="M582.13,-580.37C519.13,-558.14 382.95,-504.79 287.53,-429.26"/>
</g>
<!-- vcorelib_task&#45;&gt;experimental_lowqa_tasks_conntextual -->
<g id="edge29" class="edge">
<title>vcorelib_task&#45;&gt;experimental_lowqa_tasks_conntextual</title><style>.edge>path:hover{stroke-width:8}</style>
<path fill="none" stroke="black" d="M641.36,-577.28C700.42,-542.13 844.33,-453.91 843.53,-429.26"/>
<path fill="none" stroke="black" d="M843.53,-427.26C842.58,-405.07 857.25,-386.67 874.58,-372.78"/>
<polygon fill="#06f9f9" stroke="black" points="876.77,-375.51 882.69,-366.72 872.58,-369.91 876.77,-375.51"/>
</g>
<!-- vcorelib_task&#45;&gt;experimental_lowqa_tasks_docs -->
<g id="edge30" class="edge">
<title>vcorelib_task&#45;&gt;experimental_lowqa_tasks_docs</title><style>.edge>path:hover{stroke-width:8}</style>
<path fill="none" stroke="black" d="M642.24,-577.78C652.87,-572.57 665.5,-567.14 677.53,-563.9 757.51,-542.32 984.3,-580.19 1048.53,-527.9 1120.02,-469.7 1233.33,-200.15 1171.53,-131.75"/>
<path fill="none" stroke="black" d="M1171.53,-129.75C1106.61,-74.31 535.53,-43.83 307.24,-33.78"/>
<polygon fill="#06f9f9" stroke="black" points="307.1,-30.27 296.96,-33.33 306.79,-37.26 307.1,-30.27"/>
</g>
<!-- vcorelib_task&#45;&gt;experimental_lowqa_tasks_python -->
<g id="edge31" class="edge">
<title>vcorelib_task&#45;&gt;experimental_lowqa_tasks_python</title><style>.edge>path:hover{stroke-width:8}</style>
<path fill="none" stroke="black" d="M598.23,-576.3C562.43,-545.59 484.78,-477.76 463.53,-449.47 390.03,-351.58 423.87,-292.25 339.53,-203.52 321.7,-184.76 297.86,-169.49 275.72,-157.93"/>
<polygon fill="#06f9f9" stroke="black" points="277.19,-154.75 266.69,-153.37 274.04,-161 277.19,-154.75"/>
</g>
<!-- vcorelib_task&#45;&gt;experimental_lowqa_tasks_runtimepy -->
<g id="edge32" class="edge">
<title>vcorelib_task&#45;&gt;experimental_lowqa_tasks_runtimepy</title><style>.edge>path:hover{stroke-width:8}</style>
<path fill="none" stroke="black" d="M625.55,-574.97C634.05,-558.31 646.49,-531.91 653.53,-507.68"/>
<path fill="none" stroke="black" d="M653.53,-505.68C666.9,-459.68 579.91,-477.1 577.53,-429.26"/>
</g>
<!-- vcorelib_task&#45;&gt;experimental_lowqa_tasks_yambs_jlink -->
<g id="edge33" class="edge">
<title>vcorelib_task&#45;&gt;experimental_lowqa_tasks_yambs_jlink</title><style>.edge>path:hover{stroke-width:8}</style>
<path fill="none" stroke="black" d="M653.53,-505.68C663.03,-473 687.05,-478.04 705.53,-449.47 741.32,-394.16 728.3,-368.72 763.53,-313.06 774.98,-294.97 783.32,-294.64 795.53,-277.06 805.81,-262.28 806.89,-257.59 814.53,-241.29"/>
<path fill="none" stroke="black" d="M814.53,-239.29C823.99,-217.84 835.81,-194.7 846.16,-175.4"/>
<polygon fill="#06f9f9" stroke="black" points="849.27,-177.01 850.95,-166.54 843.11,-173.68 849.27,-177.01"/>
</g>
<!-- vcorelib_task&#45;&gt;experimental_lowqa_tasks_yambs_udev -->
<g id="edge34" class="edge">
<title>vcorelib_task&#45;&gt;experimental_lowqa_tasks_yambs_udev</title><style>.edge>path:hover{stroke-width:8}</style>
<path fill="none" stroke="black" d="M653.53,-505.68C664.12,-469.26 684.87,-466.6 691.53,-429.26"/>
<path fill="none" stroke="black" d="M691.53,-427.26C699.95,-380.11 702.31,-325.28 702.8,-287.44"/>
<polygon fill="#06f9f9" stroke="black" points="706.3,-287.27 702.9,-277.23 699.31,-287.2 706.3,-287.27"/>
</g>
<!-- vcorelib_task_manager -->
<g id="node19" class="node">
<title>vcorelib_task_manager</title><style>.edge>path:hover{stroke-width:8}</style>
<ellipse fill="#31c4c4" stroke="black" cx="1138.53" cy="-833.41" rx="42.35" ry="28.98"/>
<text text-anchor="middle" x="1138.53" y="-841.91" font-family="Helvetica,sans-Serif" font-size="10.00" fill="#000000">vcorelib.</text>
<text text-anchor="middle" x="1138.53" y="-830.91" font-family="Helvetica,sans-Serif" font-size="10.00" fill="#000000">task.</text>
<text text-anchor="middle" x="1138.53" y="-819.91" font-family="Helvetica,sans-Serif" font-size="10.00" fill="#000000">manager</text>
</g>
<!-- vcorelib_task_manager&#45;&gt;experimental_lowqa_tasks_conntextual -->
<g id="edge35" class="edge">
<title>vcorelib_task_manager&#45;&gt;experimental_lowqa_tasks_conntextual</title><style>.edge>path:hover{stroke-width:8}</style>
<path fill="none" stroke="black" d="M1146.71,-804.73C1166.46,-735.49 1212.9,-556.82 1181.53,-507.68"/>
<path fill="none" stroke="black" d="M1181.53,-505.68C1137.14,-442.76 846.85,-506.19 843.53,-429.26"/>
</g>
<!-- vcorelib_task_manager&#45;&gt;experimental_lowqa_tasks_yambs_jlink -->
<g id="edge36" class="edge">
<title>vcorelib_task_manager&#45;&gt;experimental_lowqa_tasks_yambs_jlink</title><style>.edge>path:hover{stroke-width:8}</style>
<path fill="none" stroke="black" d="M1181.53,-505.68C1098.33,-387.75 1165.48,-304.69 1062.53,-203.52 1034.35,-175.82 994.48,-158.65 958.37,-148.08"/>
<polygon fill="#31c4c4" stroke="black" points="958.88,-144.59 948.3,-145.27 956.99,-151.33 958.88,-144.59"/>
</g>
<!-- vcorelib_task_manager&#45;&gt;vcorelib_task_subprocess_run -->
<g id="edge37" class="edge">
<title>vcorelib_task_manager&#45;&gt;vcorelib_task_subprocess_run</title><style>.edge>path:hover{stroke-width:8}</style>
<path fill="none" stroke="black" d="M1105.92,-814.54C1098.39,-810.86 1090.3,-807.24 1082.53,-804.42 951.14,-756.63 908.12,-778.69 776.53,-731.42 769.06,-728.73 761.35,-725.5 753.86,-722.09"/>
<polygon fill="#31c4c4" stroke="black" points="755.08,-718.8 744.54,-717.71 752.1,-725.13 755.08,-718.8"/>
</g>
<!-- vcorelib_task_subprocess -->
<g id="node20" class="node">
<title>vcorelib_task_subprocess</title><style>.edge>path:hover{stroke-width:8}</style>
<ellipse fill="#16f3f3" stroke="black" cx="463.53" cy="-592.89" rx="50.41" ry="28.98"/>
<text text-anchor="middle" x="463.53" y="-601.39" font-family="Helvetica,sans-Serif" font-size="10.00" fill="#000000">vcorelib.</text>
<text text-anchor="middle" x="463.53" y="-590.39" font-family="Helvetica,sans-Serif" font-size="10.00" fill="#000000">task.</text>
<text text-anchor="middle" x="463.53" y="-579.39" font-family="Helvetica,sans-Serif" font-size="10.00" fill="#000000">subprocess</text>
</g>
<!-- vcorelib_task_subprocess&#45;&gt;experimental_lowqa_edit -->
<g id="edge38" class="edge">
<title>vcorelib_task_subprocess&#45;&gt;experimental_lowqa_edit</title><style>.edge>path:hover{stroke-width:8}</style>
<path fill="none" stroke="black" d="M415.64,-583.53C381.78,-575.15 337.9,-558.85 311.53,-527.9 282.28,-493.55 321.84,-458.56 287.53,-429.26"/>
<path fill="none" stroke="black" d="M287.53,-427.26C253.23,-400.1 208.77,-378.38 174.06,-363.8"/>
<polygon fill="#16f3f3" stroke="black" points="175.12,-360.45 164.54,-359.88 172.45,-366.92 175.12,-360.45"/>
</g>
<!-- vcorelib_task_subprocess&#45;&gt;experimental_lowqa_tasks_conntextual -->
<g id="edge39" class="edge">
<title>vcorelib_task_subprocess&#45;&gt;experimental_lowqa_tasks_conntextual</title><style>.edge>path:hover{stroke-width:8}</style>
<path fill="none" stroke="black" d="M508.06,-579.01C542.91,-566.53 589.67,-544.08 615.53,-507.68"/>
</g>
<!-- vcorelib_task_subprocess&#45;&gt;experimental_lowqa_tasks_docs -->
<g id="edge40" class="edge">
<title>vcorelib_task_subprocess&#45;&gt;experimental_lowqa_tasks_docs</title><style>.edge>path:hover{stroke-width:8}</style>
<path fill="none" stroke="black" d="M437,-567.98C407.37,-538.52 363.53,-485.44 363.53,-429.26 363.53,-429.26 363.53,-429.26 363.53,-341.05 363.53,-246.51 371.07,-214.61 325.53,-131.75"/>
</g>
<!-- vcorelib_task_subprocess&#45;&gt;experimental_lowqa_tasks_runtimepy -->
<g id="edge41" class="edge">
<title>vcorelib_task_subprocess&#45;&gt;experimental_lowqa_tasks_runtimepy</title><style>.edge>path:hover{stroke-width:8}</style>
<path fill="none" stroke="black" d="M515.53,-427.26C521.65,-407.64 535.31,-389.88 549.25,-375.78"/>
<polygon fill="#16f3f3" stroke="black" points="551.77,-378.22 556.53,-368.75 546.9,-373.18 551.77,-378.22"/>
</g>
<!-- vcorelib_task_subprocess&#45;&gt;experimental_lowqa_tasks_yambs_jlink -->
<g id="edge42" class="edge">
<title>vcorelib_task_subprocess&#45;&gt;experimental_lowqa_tasks_yambs_jlink</title><style>.edge>path:hover{stroke-width:8}</style>
<path fill="none" stroke="black" d="M471.93,-564.13C476.32,-547.86 481.07,-526.81 482.53,-507.68"/>
<path fill="none" stroke="black" d="M482.53,-505.68C484.55,-479.39 469.3,-475.2 463.53,-449.47 443.18,-358.59 365.65,-297.99 439.53,-241.29"/>
</g>
<!-- vcorelib_task_subprocess&#45;&gt;experimental_lowqa_tasks_yambs_udev -->
<g id="edge43" class="edge">
<title>vcorelib_task_subprocess&#45;&gt;experimental_lowqa_tasks_yambs_udev</title><style>.edge>path:hover{stroke-width:8}</style>
<path fill="none" stroke="black" d="M482.53,-505.68C485.37,-468.79 504.53,-464.58 515.53,-429.26"/>
<path fill="none" stroke="black" d="M515.53,-427.26C527.75,-388.06 459.14,-379.76 477.53,-343.05"/>
</g>
<!-- vcorelib_task_subprocess_run&#45;&gt;experimental_lowqa_edit -->
<g id="edge44" class="edge">
<title>vcorelib_task_subprocess_run&#45;&gt;experimental_lowqa_edit</title><style>.edge>path:hover{stroke-width:8}</style>
<path fill="none" stroke="black" d="M651.88,-688.17C536.62,-675.61 265.8,-644.11 230.53,-621.88 217.82,-613.86 219.71,-606.51 211.53,-593.89"/>
<path fill="none" stroke="black" d="M211.53,-591.89C191.18,-560.48 217.87,-544.57 211.53,-507.68"/>
<path fill="none" stroke="black" d="M211.53,-505.68C203.98,-461.68 214.87,-445.7 192.53,-407.04 183.81,-391.94 170.17,-378.66 156.98,-368.17"/>
<polygon fill="#0bd6d6" stroke="black" points="158.94,-365.27 148.86,-362 154.71,-370.84 158.94,-365.27"/>
</g>
<!-- vcorelib_task_subprocess_run&#45;&gt;experimental_lowqa_tasks_conntextual -->
<g id="edge45" class="edge">
<title>vcorelib_task_subprocess_run&#45;&gt;experimental_lowqa_tasks_conntextual</title><style>.edge>path:hover{stroke-width:8}</style>
<path fill="none" stroke="black" d="M746.75,-673.89C776.64,-657.41 813.47,-630.66 827.53,-593.89"/>
<path fill="none" stroke="black" d="M827.53,-591.89C841.14,-556.31 847.66,-545.55 843.53,-507.68"/>
<path fill="none" stroke="black" d="M843.53,-505.68C839.86,-471.92 845,-463.19 843.53,-429.26"/>
</g>
<!-- vcorelib_task_subprocess_run&#45;&gt;experimental_lowqa_tasks_docs -->
<g id="edge46" class="edge">
<title>vcorelib_task_subprocess_run&#45;&gt;experimental_lowqa_tasks_docs</title><style>.edge>path:hover{stroke-width:8}</style>
<path fill="none" stroke="black" d="M211.53,-591.89C210.27,-589.94 249.53,-431.58 249.53,-429.26 249.53,-429.26 249.53,-429.26 249.53,-341.05 249.53,-279.35 270.09,-250.88 230.53,-203.52 197.56,-164.04 150.73,-209.17 120.53,-167.52 101.35,-141.06 105.32,-122.91 120.53,-93.98 128.24,-79.33 140.98,-67.38 154.6,-57.94"/>
<polygon fill="#0bd6d6" stroke="black" points="156.68,-60.77 163.16,-52.39 152.87,-54.9 156.68,-60.77"/>
</g>
<!-- vcorelib_task_subprocess_run&#45;&gt;experimental_lowqa_tasks_runtimepy -->
<g id="edge47" class="edge">
<title>vcorelib_task_subprocess_run&#45;&gt;experimental_lowqa_tasks_runtimepy</title><style>.edge>path:hover{stroke-width:8}</style>
<path fill="none" stroke="black" d="M653.58,-682.86C620.93,-672.94 580.74,-654.62 560.53,-621.88 547,-599.95 558.92,-589.62 560.53,-563.9 564.32,-503.7 580.53,-489.5 577.53,-429.26"/>
<path fill="none" stroke="black" d="M577.53,-427.26C575.52,-412.18 577.07,-395.61 579.64,-381.18"/>
<polygon fill="#0bd6d6" stroke="black" points="583.13,-381.6 581.66,-371.1 576.26,-380.22 583.13,-381.6"/>
</g>
<!-- vcorelib_task_subprocess_run&#45;&gt;experimental_lowqa_tasks_yambs_jlink -->
<g id="edge48" class="edge">
<title>vcorelib_task_subprocess_run&#45;&gt;experimental_lowqa_tasks_yambs_jlink</title><style>.edge>path:hover{stroke-width:8}</style>
<path fill="none" stroke="black" d="M691.53,-591.89C701.7,-523 778.87,-354.9 834.53,-313.06 914.72,-252.79 1055.83,-341.34 1048.53,-241.29"/>
<path fill="none" stroke="black" d="M1048.53,-239.29C1043.47,-193.06 998.45,-166.13 954.95,-150.78"/>
<polygon fill="#0bd6d6" stroke="black" points="956.01,-147.44 945.42,-147.58 953.79,-154.08 956.01,-147.44"/>
</g>
<!-- vcorelib_task_subprocess_run&#45;&gt;experimental_lowqa_tasks_yambs_udev -->
<g id="edge49" class="edge">
<title>vcorelib_task_subprocess_run&#45;&gt;experimental_lowqa_tasks_yambs_udev</title><style>.edge>path:hover{stroke-width:8}</style>
<path fill="none" stroke="black" d="M694.61,-658.03C691,-638.97 688.35,-615.11 691.53,-593.89"/>
<path fill="none" stroke="black" d="M691.53,-591.89C702.26,-520.41 679.24,-500.48 691.53,-429.26"/>
</g>
</g>
</svg>
